<?xml version="1.0" encoding="UTF-8"?>
<svg width="64px" height="64px" viewBox="0 0 64 64" version="1.1" xmlns="http://www.w3.org/2000/svg" xmlns:xlink="http://www.w3.org/1999/xlink">
    <!-- Generator: Sketch 46.2 (44496) - http://www.bohemiancoding.com/sketch -->
    <title>design development notebook pen</title>
    <desc>Created with Sketch.</desc>
    <defs></defs>
    <g id="Main" stroke="none" stroke-width="1" fill="none" fill-rule="evenodd">
        <g id="mobile_main" transform="translate(-155.000000, -1746.000000)" fill-rule="nonzero">
            <g id="Group-2" transform="translate(0.000000, 1686.000000)">
                <g id="design-development-notebook-pen" transform="translate(155.000000, 60.000000)">
                    <g id="XMLID_1835_" transform="translate(15.000000, 22.000000)" fill="#0070FF" fill-opacity="0.3">
                        <rect id="Rectangle-path" x="0" y="0" width="20" height="10"></rect>
                    </g>
                    <g id="XMLID_1834_" transform="translate(46.000000, 1.000000)" fill-opacity="0.3" fill="#0070FF">
                        <path d="M10,10 L5,0 L0,10 L0,57 C0,59.7614 2.23859,62 5,62 L5,62 C7.76139,62 10,59.7614 10,57 L10,10 Z" id="Shape"></path>
                    </g>
                    <g id="XMLID_607_" transform="translate(3.000000, 0.000000)" fill="#1D1B4C">
                        <path d="M39,64 L1,64 C0.44727,64 0,63.55225 0,63 L0,1 C0,0.44775 0.44727,0 1,0 L39,0 C40.6543,0 42,1.3457 42,3 L42,61 C42,62.6543 40.6543,64 39,64 Z M2,62 L39,62 C39.55176,62 40,61.55127 40,61 L40,3 C40,2.44873 39.55176,2 39,2 L2,2 L2,62 Z" id="Shape"></path>
                    </g>
                    <g id="XMLID_683_" transform="translate(0.000000, 4.000000)" fill="#1D1B4C">
                        <path d="M7,2 L1,2 C0.44727,2 0,1.55225 0,1 C0,0.44775 0.44727,0 1,0 L7,0 C7.55273,0 8,0.44775 8,1 C8,1.55225 7.55273,2 7,2 Z" id="Shape"></path>
                    </g>
                    <g id="XMLID_684_" transform="translate(0.000000, 10.000000)" fill="#1D1B4C">
                        <path d="M7,2 L1,2 C0.44727,2 0,1.55225 0,1 C0,0.44775 0.44727,0 1,0 L7,0 C7.55273,0 8,0.44775 8,1 C8,1.55225 7.55273,2 7,2 Z" id="Shape"></path>
                    </g>
                    <g id="XMLID_687_" transform="translate(0.000000, 16.000000)" fill="#1D1B4C">
                        <path d="M7,2 L1,2 C0.44727,2 0,1.55225 0,1 C0,0.44775 0.44727,0 1,0 L7,0 C7.55273,0 8,0.44775 8,1 C8,1.55225 7.55273,2 7,2 Z" id="Shape"></path>
                    </g>
                    <g id="XMLID_686_" transform="translate(0.000000, 22.000000)" fill="#1D1B4C">
                        <path d="M7,2 L1,2 C0.44727,2 0,1.55225 0,1 C0,0.44775 0.44727,0 1,0 L7,0 C7.55273,0 8,0.44775 8,1 C8,1.55225 7.55273,2 7,2 Z" id="Shape"></path>
                    </g>
                    <g id="XMLID_691_" transform="translate(0.000000, 28.000000)" fill="#1D1B4C">
                        <path d="M7,2 L1,2 C0.44727,2 0,1.55225 0,1 C0,0.44775 0.44727,0 1,0 L7,0 C7.55273,0 8,0.44775 8,1 C8,1.55225 7.55273,2 7,2 Z" id="Shape"></path>
                    </g>
                    <g id="XMLID_690_" transform="translate(0.000000, 34.000000)" fill="#1D1B4C">
                        <path d="M7,2 L1,2 C0.44727,2 0,1.55225 0,1 C0,0.44775 0.44727,0 1,0 L7,0 C7.55273,0 8,0.44775 8,1 C8,1.55225 7.55273,2 7,2 Z" id="Shape"></path>
                    </g>
                    <g id="XMLID_689_" transform="translate(0.000000, 40.000000)" fill="#1D1B4C">
                        <path d="M7,2 L1,2 C0.44727,2 0,1.55225 0,1 C0,0.44775 0.44727,0 1,0 L7,0 C7.55273,0 8,0.44775 8,1 C8,1.55225 7.55273,2 7,2 Z" id="Shape"></path>
                    </g>
                    <g id="XMLID_688_" transform="translate(0.000000, 46.000000)" fill="#1D1B4C">
                        <path d="M7,2 L1,2 C0.44727,2 0,1.55225 0,1 C0,0.44775 0.44727,0 1,0 L7,0 C7.55273,0 8,0.44775 8,1 C8,1.55225 7.55273,2 7,2 Z" id="Shape"></path>
                    </g>
                    <g id="XMLID_693_" transform="translate(0.000000, 52.000000)" fill="#1D1B4C">
                        <path d="M7,2 L1,2 C0.44727,2 0,1.55225 0,1 C0,0.44775 0.44727,0 1,0 L7,0 C7.55273,0 8,0.44775 8,1 C8,1.55225 7.55273,2 7,2 Z" id="Shape"></path>
                    </g>
                    <g id="XMLID_692_" transform="translate(0.000000, 58.000000)" fill="#1D1B4C">
                        <path d="M7,2 L1,2 C0.44727,2 0,1.55225 0,1 C0,0.44775 0.44727,0 1,0 L7,0 C7.55273,0 8,0.44775 8,1 C8,1.55225 7.55273,2 7,2 Z" id="Shape"></path>
                    </g>
                    <g id="XMLID_723_" transform="translate(11.000000, 0.000000)" fill="#1D1B4C">
                        <path d="M1,64 C0.44727,64 0,63.55225 0,63 L0,1 C0,0.44775 0.44727,0 1,0 C1.55273,0 2,0.44775 2,1 L2,63 C2,63.55225 1.55273,64 1,64 Z" id="Shape"></path>
                    </g>
                    <g id="XMLID_728_" transform="translate(17.000000, 18.000000)" fill="#1D1B4C">
                        <path d="M21,12 L1,12 C0.44727,12 0,11.55225 0,11 L0,1 C0,0.44775 0.44727,0 1,0 L21,0 C21.55273,0 22,0.44775 22,1 L22,11 C22,11.55225 21.55273,12 21,12 Z M2,10 L20,10 L20,2 L2,2 L2,10 Z" id="Shape"></path>
                    </g>
                    <g id="XMLID_729_" transform="translate(21.000000, 24.000000)" fill="#1D1B4C">
                        <path d="M13,2 L1,2 C0.44727,2 0,1.55225 0,1 C0,0.44775 0.44727,0 1,0 L13,0 C13.55273,0 14,0.44775 14,1 C14,1.55225 13.55273,2 13,2 Z" id="Shape"></path>
                    </g>
                    <g id="XMLID_666_" transform="translate(39.000000, 58.000000)" fill="#1D1B4C">
                        <path d="M1,2 C0.74023,2 0.47949,1.88965 0.29004,1.70996 C0.10938,1.52002 0,1.25977 0,1 C0,0.73975 0.10938,0.47998 0.29004,0.29004 C0.66992,-0.08008 1.33008,-0.08008 1.70996,0.29004 C1.88965,0.47998 2,0.73975 2,1 C2,1.25977 1.88965,1.52002 1.70996,1.70996 C1.51953,1.88965 1.25977,2 1,2 Z" id="Shape"></path>
                    </g>
                    <g id="XMLID_670_" transform="translate(35.000000, 58.000000)" fill="#1D1B4C">
                        <path d="M1,2 C0.74023,2 0.47949,1.88965 0.29004,1.70996 C0.10938,1.52002 0,1.25977 0,1 C0,0.72998 0.10938,0.47998 0.29004,0.29004 C0.66016,-0.08008 1.33984,-0.08008 1.70996,0.29004 C1.88965,0.47998 2,0.72998 2,1 C2,1.25977 1.88965,1.52002 1.70996,1.70996 C1.51953,1.88965 1.25977,2 1,2 Z" id="Shape"></path>
                    </g>
                    <g id="XMLID_672_" transform="translate(31.000000, 58.000000)" fill="#1D1B4C">
                        <path d="M1,2 C0.72949,2 0.47949,1.88965 0.29004,1.70996 C0.10938,1.52002 0,1.25977 0,1 C0,0.73975 0.10938,0.47998 0.29004,0.29004 C0.66992,-0.08008 1.33984,-0.08008 1.70996,0.29004 C1.88965,0.47998 2,0.72998 2,1 C2,1.25977 1.88965,1.52002 1.70996,1.70996 C1.51953,1.88965 1.26953,2 1,2 Z" id="Shape"></path>
                    </g>
                    <g id="XMLID_671_" transform="translate(27.000000, 58.000000)" fill="#1D1B4C">
                        <path d="M1,2 C0.74023,2 0.47949,1.88965 0.29004,1.70996 C0.10938,1.52002 0,1.25977 0,1 C0,0.73975 0.10938,0.47998 0.29004,0.29004 C0.66992,-0.08008 1.33984,-0.08008 1.70996,0.29004 C1.88965,0.47998 2,0.73975 2,1 C2,1.27002 1.88965,1.52002 1.7002,1.70996 C1.51953,1.88965 1.25977,2 1,2 Z" id="Shape"></path>
                    </g>
                    <g id="XMLID_678_" transform="translate(23.000000, 58.000000)" fill="#1D1B4C">
                        <path d="M1,2 C0.74023,2 0.47949,1.88965 0.29004,1.70996 C0.10938,1.52002 0,1.27002 0,1 C0,0.73975 0.10938,0.47998 0.29004,0.29004 C0.66992,-0.08008 1.33984,-0.08008 1.70996,0.29004 C1.88965,0.47998 2,0.73975 2,1 C2,1.27002 1.88965,1.52002 1.7002,1.70996 C1.51953,1.88965 1.25977,2 1,2 Z" id="Shape"></path>
                    </g>
                    <g id="XMLID_712_" transform="translate(39.000000, 54.000000)" fill="#1D1B4C">
                        <path d="M1,2 C0.74023,2 0.47949,1.88965 0.29004,1.70996 C0.10938,1.52002 0,1.25977 0,1 C0,0.73975 0.10938,0.47998 0.29004,0.29004 C0.66016,-0.08008 1.33984,-0.08008 1.70996,0.29004 C1.88965,0.47998 2,0.73975 2,1 C2,1.25977 1.88965,1.52002 1.70996,1.70996 C1.51953,1.88965 1.25977,2 1,2 Z" id="Shape"></path>
                    </g>
                    <g id="XMLID_711_" transform="translate(35.000000, 54.000000)" fill="#1D1B4C">
                        <path d="M1,2 C0.74023,2 0.47949,1.88965 0.29004,1.70996 C0.10938,1.52002 0,1.25977 0,1 C0,0.72998 0.10938,0.47998 0.29004,0.29004 C0.66992,-0.08008 1.33984,-0.08008 1.70996,0.29004 C1.88965,0.47998 2,0.73975 2,1 C2,1.25977 1.88965,1.52002 1.70996,1.70996 C1.51953,1.88965 1.26953,2 1,2 Z" id="Shape"></path>
                    </g>
                    <g id="XMLID_710_" transform="translate(31.000000, 54.000000)" fill="#1D1B4C">
                        <path d="M1,2 C0.74023,2 0.47949,1.88965 0.29004,1.70996 C0.10938,1.52002 0,1.25977 0,1 C0,0.73975 0.10938,0.47998 0.29004,0.29004 C0.66016,-0.08008 1.33984,-0.08008 1.70996,0.29004 C1.88965,0.47998 2,0.72998 2,1 C2,1.27002 1.88965,1.52002 1.70996,1.70996 C1.51953,1.88965 1.26953,2 1,2 Z" id="Shape"></path>
                    </g>
                    <g id="XMLID_679_" transform="translate(27.000000, 54.000000)" fill="#1D1B4C">
                        <path d="M1,2 C0.74023,2 0.47949,1.88965 0.29004,1.70996 C0.10938,1.52002 0,1.25977 0,1 C0,0.73975 0.10938,0.47998 0.29004,0.29004 C0.66992,-0.08008 1.33984,-0.08008 1.70996,0.29004 C1.88965,0.47998 2,0.73975 2,1 C2,1.25977 1.88965,1.52002 1.70996,1.70996 C1.51953,1.88965 1.25977,2 1,2 Z" id="Shape"></path>
                    </g>
                    <g id="XMLID_740_" transform="translate(39.000000, 50.000000)" fill="#1D1B4C">
                        <path d="M1,2 C0.74023,2 0.47949,1.88965 0.29004,1.70996 C0.10938,1.52002 0,1.25977 0,1 C0,0.73975 0.10938,0.47998 0.29004,0.29004 C0.66016,-0.08008 1.33984,-0.08008 1.70996,0.29004 C1.88965,0.47998 2,0.73975 2,1 C2,1.25977 1.88965,1.52002 1.70996,1.70996 C1.51953,1.88965 1.25977,2 1,2 Z" id="Shape"></path>
                    </g>
                    <g id="XMLID_739_" transform="translate(35.000000, 50.000000)" fill="#1D1B4C">
                        <path d="M1,2 C0.74023,2 0.47949,1.88965 0.29004,1.70996 C0.10938,1.52002 0,1.27002 0,1 C0,0.73975 0.10938,0.47998 0.29004,0.29004 C0.66992,-0.08008 1.33984,-0.08008 1.70996,0.29004 C1.88965,0.47998 2,0.73975 2,1 C2,1.27002 1.88965,1.52002 1.70996,1.70996 C1.51953,1.88965 1.25977,2 1,2 Z" id="Shape"></path>
                    </g>
                    <g id="XMLID_738_" transform="translate(31.000000, 50.000000)" fill="#1D1B4C">
                        <path d="M1,2 C0.74023,2 0.47949,1.88965 0.29004,1.70996 C0.10938,1.52002 0,1.25977 0,1 C0,0.73975 0.10938,0.47998 0.29004,0.29004 C0.66016,-0.08008 1.33984,-0.08008 1.70996,0.29004 C1.88965,0.47998 2,0.73975 2,1 C2,1.27002 1.88965,1.52002 1.70996,1.70996 C1.51953,1.88965 1.26953,2 1,2 Z" id="Shape"></path>
                    </g>
                    <g id="XMLID_734_" transform="translate(39.000000, 46.000000)" fill="#1D1B4C">
                        <path d="M1,2 C0.74023,2 0.47949,1.88965 0.29004,1.70996 C0.10938,1.52002 0,1.25977 0,1 C0,0.73975 0.10938,0.47998 0.29004,0.29004 C0.66016,-0.08008 1.33984,-0.08008 1.70996,0.29004 C1.88965,0.47998 2,0.73975 2,1 C2,1.25977 1.88965,1.52002 1.70996,1.70996 C1.51953,1.88965 1.25977,2 1,2 Z" id="Shape"></path>
                    </g>
                    <g id="XMLID_733_" transform="translate(35.000000, 46.000000)" fill="#1D1B4C">
                        <path d="M1,2 C0.74023,2 0.47949,1.88965 0.29004,1.70996 C0.10938,1.52002 0,1.27002 0,1 C0,0.73975 0.10938,0.47998 0.29004,0.29004 C0.66992,-0.08008 1.33984,-0.08008 1.70996,0.29004 C1.88965,0.47998 2,0.73975 2,1 C2,1.27002 1.88965,1.52002 1.70996,1.70996 C1.51953,1.88965 1.26953,2 1,2 Z" id="Shape"></path>
                    </g>
                    <g id="XMLID_771_" transform="translate(48.000000, 0.000000)" fill="#1D1B4C">
                        <path d="M6,64 C2.69141,64 0,61.30859 0,58 L0,11 C0,10.84473 0.03613,10.69141 0.10547,10.55273 L5.10547,0.55273 C5.44531,-0.125 6.55469,-0.125 6.89453,0.55273 L11.89453,10.55273 C11.96387,10.69141 12,10.84473 12,11 L12,58 C12,61.30859 9.30859,64 6,64 Z M2,11.23584 L2,58 C2,60.20557 3.79395,62 6,62 C8.20605,62 10,60.20557 10,58 L10,11.23584 L6,3.23584 L2,11.23584 Z" id="Shape"></path>
                    </g>
                    <g id="XMLID_770_" transform="translate(48.000000, 35.000000)" fill="#1D1B4C">
                        <path d="M13,20 L1,20 C0.44727,20 0,19.55225 0,19 C0,18.44775 0.44727,18 1,18 L13,18 C13.55176,18 14,17.55127 14,17 L14,1 C14,0.44775 14.44727,0 15,0 C15.55273,0 16,0.44775 16,1 L16,17 C16,18.6543 14.6543,20 13,20 Z" id="Shape"></path>
                    </g>
                    <g id="XMLID_769_" transform="translate(54.000000, 11.000000)" fill="#1D1B4C">
                        <path d="M5,2 L1,2 C0.44727,2 0,1.55225 0,1 C0,0.44775 0.44727,0 1,0 L5,0 C5.55273,0 6,0.44775 6,1 C6,1.55225 5.55273,2 5,2 Z" id="Shape"></path>
                    </g>
                    <g id="XMLID_768_" transform="translate(54.000000, 15.000000)" fill="#1D1B4C">
                        <path d="M5,2 L1,2 C0.44727,2 0,1.55225 0,1 C0,0.44775 0.44727,0 1,0 L5,0 C5.55273,0 6,0.44775 6,1 C6,1.55225 5.55273,2 5,2 Z" id="Shape"></path>
                    </g>
                    <g id="XMLID_767_" transform="translate(54.000000, 19.000000)" fill="#1D1B4C">
                        <path d="M5,2 L1,2 C0.44727,2 0,1.55225 0,1 C0,0.44775 0.44727,0 1,0 L5,0 C5.55273,0 6,0.44775 6,1 C6,1.55225 5.55273,2 5,2 Z" id="Shape"></path>
                    </g>
                    <g id="XMLID_766_" transform="translate(54.000000, 23.000000)" fill="#1D1B4C">
                        <path d="M5,2 L1,2 C0.44727,2 0,1.55225 0,1 C0,0.44775 0.44727,0 1,0 L5,0 C5.55273,0 6,0.44775 6,1 C6,1.55225 5.55273,2 5,2 Z" id="Shape"></path>
                    </g>
                    <g id="XMLID_761_" transform="translate(53.000000, 49.000000)" fill="#1D1B4C">
                        <path d="M1,2 C0.74023,2 0.47949,1.88965 0.29004,1.70996 C0.10938,1.52002 0,1.25977 0,1 C0,0.73975 0.10938,0.47998 0.29004,0.29004 C0.66016,-0.08008 1.33008,-0.08008 1.70996,0.29004 C1.88965,0.47998 2,0.73975 2,1 C2,1.25977 1.88965,1.52002 1.70996,1.70996 C1.51953,1.88965 1.25977,2 1,2 Z" id="Shape"></path>
                    </g>
                    <g id="XMLID_760_" transform="translate(53.000000, 45.000000)" fill="#1D1B4C">
                        <path d="M1,2 C0.74023,2 0.47949,1.88965 0.29004,1.70996 C0.10938,1.52002 0,1.25977 0,1 C0,0.73975 0.10938,0.47998 0.29004,0.29004 C0.66992,-0.08008 1.33008,-0.08008 1.70996,0.29004 C1.88965,0.47998 2,0.73975 2,1 C2,1.25977 1.88965,1.52002 1.70996,1.70996 C1.51953,1.88965 1.25977,2 1,2 Z" id="Shape"></path>
                    </g>
                    <g id="XMLID_758_" transform="translate(53.000000, 41.000000)" fill="#1D1B4C">
                        <path d="M1,2 C0.74023,2 0.47949,1.88965 0.29004,1.70996 C0.10938,1.52002 0,1.25977 0,1 C0,0.73975 0.10938,0.47998 0.29004,0.29004 C0.66016,-0.08008 1.33008,-0.08008 1.70996,0.29004 C1.88965,0.47998 2,0.73975 2,1 C2,1.25977 1.89941,1.52002 1.70996,1.70996 C1.51953,1.8999 1.25977,2 1,2 Z" id="Shape"></path>
                    </g>
                    <g id="XMLID_757_" transform="translate(53.000000, 37.000000)" fill="#1D1B4C">
                        <path d="M1,2 C0.74023,2 0.47949,1.88965 0.29004,1.70996 C0.10938,1.52002 0,1.25977 0,1 C0,0.73975 0.10938,0.47998 0.29004,0.29004 C0.66992,-0.08008 1.33008,-0.08008 1.70996,0.29004 C1.88965,0.47998 2,0.73975 2,1 C2,1.25977 1.88965,1.52002 1.70996,1.70996 C1.51953,1.88965 1.25977,2 1,2 Z" id="Shape"></path>
                    </g>
                </g>
            </g>
        </g>
    </g>
</svg>