<?xml version="1.0" encoding="UTF-8"?>
<svg width="107px" height="32px" viewBox="0 0 107 32" version="1.1" xmlns="http://www.w3.org/2000/svg" xmlns:xlink="http://www.w3.org/1999/xlink">
    <!-- Generator: Sketch 47.1 (45422) - http://www.bohemiancoding.com/sketch -->
    <title>logo_w</title>
    <desc>Created with Sketch.</desc>
    <defs></defs>
    <g id="Symbols" stroke="none" stroke-width="1" fill="none" fill-rule="evenodd">
        <g id="v" transform="translate(-674.000000, -39.000000)" fill="#FFFFFF">
            <g id="logo_w" transform="translate(674.000000, 39.000000)">
                <g id="Group-3">
                    <path d="M20.92,32 L14.44,32 L8.68,21.08 L5.92,21.08 L5.92,32 L0.2,32 L0.2,3.4 L11.48,3.4 C21.68,3.4 22.68,17.76 14.28,20.2 L20.92,32 Z M5.92,9.12 L5.92,15.52 L10.96,15.52 C14.84,15.52 14.84,9.12 10.96,9.12 L5.92,9.12 Z" id="R"></path>
                    <path d="M60.516,8.232 C60.3853327,8.17599972 60.2453341,8.13400014 60.096,8.106 C59.9466659,8.07799986 59.7600011,8.064 59.536,8.064 C59.2933321,8.064 59.0670011,8.10599958 58.857,8.19 C58.6469989,8.27400042 58.4650008,8.39299923 58.311,8.547 C58.1569992,8.70100077 58.0356671,8.88299895 57.947,9.093 C57.8583329,9.30300105 57.814,9.53399874 57.814,9.786 L57.814,14.364 L56.05,14.364 L56.05,6.65 L57.744,6.65 L57.744,7.77 L57.772,7.77 C57.9773344,7.37799804 58.2503316,7.0653345 58.591,6.832 C58.9316684,6.5986655 59.3773306,6.482 59.928,6.482 C60.124001,6.482 60.319999,6.49599986 60.516,6.524 C60.712001,6.55200014 60.8799993,6.5893331 61.02,6.636 L60.516,8.232 Z M67.1193333,9.814 L67.1193333,9.478 C67.1193333,9.27266564 67.0890003,9.0766676 67.0283333,8.89 C66.9676664,8.7033324 66.867334,8.5400007 66.7273333,8.4 C66.5873326,8.2599993 66.4100011,8.14800042 66.1953333,8.064 C65.9806656,7.97999958 65.7193349,7.938 65.4113333,7.938 C64.8233304,7.938 64.3823348,8.09199846 64.0883333,8.4 C63.7943319,8.70800154 63.6473333,9.08133114 63.6473333,9.52 L63.6473333,9.814 L67.1193333,9.814 Z M68.6173333,13.65 C68.2439981,13.9020013 67.8053358,14.1026659 67.3013333,14.252 C66.7973308,14.4013341 66.181337,14.476 65.4533333,14.476 C65.0053311,14.476 64.5713354,14.4176672 64.1513333,14.301 C63.7313312,14.1843327 63.3556683,13.9883347 63.0243333,13.713 C62.6929983,13.4376653 62.427001,13.0690023 62.2263333,12.607 C62.0256657,12.1449977 61.9253333,11.5686701 61.9253333,10.878 L61.9253333,10.08 C61.9253333,9.45466354 62.0163324,8.91566893 62.1983333,8.463 C62.3803342,8.01033107 62.6299984,7.63700147 62.9473333,7.343 C63.2646682,7.04899853 63.6356645,6.8320007 64.0603333,6.692 C64.4850021,6.5519993 64.9446642,6.482 65.4393333,6.482 C65.9246691,6.482 66.3749979,6.5519993 66.7903333,6.692 C67.2056687,6.8320007 67.5626652,7.04433191 67.8613333,7.329 C68.1600015,7.61366809 68.3933325,7.96833121 68.5613333,8.393 C68.7293342,8.81766879 68.8133333,9.3099972 68.8133333,9.87 L68.8133333,11.144 L63.6473333,11.144 C63.6473333,11.7600031 63.810665,12.2243318 64.1373333,12.537 C64.4640016,12.8496682 64.9353302,13.006 65.5513333,13.006 C66.0086689,13.006 66.4146649,12.9570005 66.7693333,12.859 C67.1240018,12.7609995 67.4973314,12.6000011 67.8893333,12.376 L68.6173333,13.65 Z M73.1906667,12.978 C73.592002,12.978 73.9116655,12.9243339 74.1496667,12.817 C74.3876678,12.7096661 74.5066667,12.5066682 74.5066667,12.208 L74.5066667,12.124 C74.5066667,11.9933327 74.4903335,11.8836671 74.4576667,11.795 C74.4249998,11.7063329 74.3526672,11.6293337 74.2406667,11.564 C74.1286661,11.4986663 73.9676677,11.4380003 73.7576667,11.382 C73.5476656,11.3259997 73.2606685,11.260667 72.8966667,11.186 C72.4299977,11.0926662 72.0310016,10.9830006 71.6996667,10.857 C71.3683317,10.7309994 71.0976677,10.5746676 70.8876667,10.388 C70.6776656,10.2013324 70.5236671,9.97733464 70.4256667,9.716 C70.3276662,9.45466536 70.2786667,9.14200182 70.2786667,8.778 L70.2786667,8.638 C70.2786667,8.37666536 70.3323328,8.11766795 70.4396667,7.861 C70.5470005,7.60433205 70.7196655,7.37333436 70.9576667,7.168 C71.1956678,6.96266564 71.5036648,6.79700063 71.8816667,6.671 C72.2596685,6.54499937 72.7193306,6.482 73.2606667,6.482 C73.7086689,6.482 74.1823308,6.52399958 74.6816667,6.608 C75.1810025,6.69200042 75.6546644,6.88333184 76.1026667,7.182 L75.3466667,8.456 C75.085332,8.27866578 74.7936683,8.15266704 74.4716667,8.078 C74.149665,8.00333296 73.8206683,7.966 73.4846667,7.966 C72.9339972,7.966 72.556001,8.02899937 72.3506667,8.155 C72.1453323,8.28100063 72.0426667,8.44666564 72.0426667,8.652 L72.0426667,8.736 C72.0426667,8.8760007 72.0613331,8.98799958 72.0986667,9.072 C72.1360002,9.15600042 72.2059995,9.22833303 72.3086667,9.289 C72.4113338,9.34966697 72.5559991,9.4033331 72.7426667,9.45 C72.9293343,9.4966669 73.1719985,9.54799972 73.4706667,9.604 C73.9560024,9.70666718 74.3783315,9.81399944 74.7376667,9.926 C75.0970018,10.0380006 75.3909988,10.1849991 75.6196667,10.367 C75.8483345,10.5490009 76.0186661,10.7776653 76.1306667,11.053 C76.2426672,11.3283347 76.2986667,11.6713313 76.2986667,12.082 L76.2986667,12.236 C76.2986667,12.5346682 76.2310007,12.819332 76.0956667,13.09 C75.9603326,13.360668 75.7620013,13.5986656 75.5006667,13.804 C75.239332,14.0093344 74.9173352,14.1726661 74.5346667,14.294 C74.1519981,14.4153339 73.7180024,14.476 73.2326667,14.476 C72.5886634,14.476 71.9796695,14.3920008 71.4056667,14.224 C70.8316638,14.0559992 70.3580019,13.8226682 69.9846667,13.524 L70.7686667,12.18 C71.1140017,12.4133345 71.4826647,12.6046659 71.8746667,12.754 C72.2666686,12.9033341 72.7053309,12.978 73.1906667,12.978 Z M80.592,14.49 C79.7799959,14.49 79.1313357,14.2496691 78.646,13.769 C78.1606642,13.2883309 77.918,12.5766714 77.918,11.634 L77.918,6.65 L79.682,6.65 L79.682,11.256 C79.682,11.5920017 79.7193329,11.8696656 79.794,12.089 C79.868667,12.3083344 79.9713327,12.4809994 80.102,12.607 C80.2326673,12.7330006 80.3866658,12.8216664 80.564,12.873 C80.7413342,12.9243336 80.9326656,12.95 81.138,12.95 C81.3153342,12.95 81.4996657,12.9220003 81.691,12.866 C81.8823343,12.8099997 82.0573325,12.7120007 82.216,12.572 C82.3746674,12.4319993 82.5076661,12.2453345 82.615,12.012 C82.7223338,11.7786655 82.776,11.4893351 82.776,11.144 L82.776,6.65 L84.54,6.65 L84.54,14.364 L82.86,14.364 L82.86,13.44 L82.832,13.44 C82.7199994,13.6266676 82.5800008,13.7853327 82.412,13.916 C82.2439991,14.0466673 82.0596676,14.1539996 81.859,14.238 C81.6583323,14.3220004 81.4483344,14.3849998 81.229,14.427 C81.0096655,14.4690002 80.7973343,14.49 80.592,14.49 Z M95.0633333,6.482 C95.4180017,6.482 95.7563317,6.54266606 96.0783333,6.664 C96.4003349,6.78533394 96.6826654,6.96733212 96.9253333,7.21 C97.1680012,7.45266788 97.3616659,7.75599818 97.5063333,8.12 C97.6510007,8.48400182 97.7233333,8.90866424 97.7233333,9.394 L97.7233333,14.364 L95.9593333,14.364 L95.9593333,9.758 C95.9593333,9.41266494 95.9220003,9.12800112 95.8473333,8.904 C95.7726663,8.67999888 95.6700006,8.50500063 95.5393333,8.379 C95.408666,8.25299937 95.2593341,8.1666669 95.0913333,8.12 C94.9233325,8.0733331 94.7460009,8.05 94.5593333,8.05 C94.3913325,8.05 94.2210008,8.07566641 94.0483333,8.127 C93.8756658,8.17833359 93.7240006,8.26699937 93.5933333,8.393 C93.462666,8.51900063 93.3553337,8.68933226 93.2713333,8.904 C93.1873329,9.11866774 93.1453333,9.38466508 93.1453333,9.702 L93.1453333,14.364 L91.3813333,14.364 L91.3813333,9.73 C91.3813333,9.4033317 91.3440003,9.13266774 91.2693333,8.918 C91.1946663,8.70333226 91.0943339,8.53066732 90.9683333,8.4 C90.8423327,8.26933268 90.6953341,8.17833359 90.5273333,8.127 C90.3593325,8.07566641 90.1773343,8.05 89.9813333,8.05 C89.5613312,8.05 89.2206679,8.18066536 88.9593333,8.442 C88.6979987,8.70333464 88.5673333,9.09999734 88.5673333,9.632 L88.5673333,14.364 L86.8033333,14.364 L86.8033333,6.65 L88.4693333,6.65 L88.4693333,7.63 L88.4973333,7.63 C88.6840009,7.27533156 88.9569982,6.99533436 89.3163333,6.79 C89.6756684,6.58466564 90.1073308,6.482 90.6113333,6.482 C91.0873357,6.482 91.5143314,6.58933226 91.8923333,6.804 C92.2703352,7.01866774 92.5293326,7.30333156 92.6693333,7.658 C92.9400013,7.26599804 93.2596648,6.97200098 93.6283333,6.776 C93.9970018,6.57999902 94.4753304,6.482 95.0633333,6.482 Z M104.704667,9.814 L104.704667,9.478 C104.704667,9.27266564 104.674334,9.0766676 104.613667,8.89 C104.553,8.7033324 104.452667,8.5400007 104.312667,8.4 C104.172666,8.2599993 103.995334,8.14800042 103.780667,8.064 C103.565999,7.97999958 103.304668,7.938 102.996667,7.938 C102.408664,7.938 101.967668,8.09199846 101.673667,8.4 C101.379665,8.70800154 101.232667,9.08133114 101.232667,9.52 L101.232667,9.814 L104.704667,9.814 Z M106.202667,13.65 C105.829331,13.9020013 105.390669,14.1026659 104.886667,14.252 C104.382664,14.4013341 103.76667,14.476 103.038667,14.476 C102.590664,14.476 102.156669,14.4176672 101.736667,14.301 C101.316665,14.1843327 100.941002,13.9883347 100.609667,13.713 C100.278332,13.4376653 100.012334,13.0690023 99.8116666,12.607 C99.610999,12.1449977 99.5106666,11.5686701 99.5106666,10.878 L99.5106666,10.08 C99.5106666,9.45466354 99.6016657,8.91566893 99.7836666,8.463 C99.9656675,8.01033107 100.215332,7.63700147 100.532667,7.343 C100.850002,7.04899853 101.220998,6.8320007 101.645667,6.692 C102.070335,6.5519993 102.529997,6.482 103.024667,6.482 C103.510002,6.482 103.960331,6.5519993 104.375667,6.692 C104.791002,6.8320007 105.147998,7.04433191 105.446667,7.329 C105.745335,7.61366809 105.978666,7.96833121 106.146667,8.393 C106.314667,8.81766879 106.398667,9.3099972 106.398667,9.87 L106.398667,11.144 L101.232667,11.144 C101.232667,11.7600031 101.395998,12.2243318 101.722667,12.537 C102.049335,12.8496682 102.520664,13.006 103.136667,13.006 C103.594002,13.006 103.999998,12.9570005 104.354667,12.859 C104.709335,12.7609995 105.082665,12.6000011 105.474667,12.376 L106.202667,13.65 Z M57.45,23.588 C57.6926679,23.2053314 58.0123313,22.9393341 58.409,22.79 C58.8056687,22.6406659 59.2139979,22.566 59.634,22.566 C60.6046715,22.566 61.3466641,22.8483305 61.86,23.413 C62.3733359,23.9776695 62.63,24.7826614 62.63,25.828 L62.63,27.186 C62.63,27.7086693 62.5553341,28.172998 62.406,28.579 C62.2566659,28.985002 62.0490013,29.3279986 61.783,29.608 C61.5169987,29.8880014 61.1973352,30.1026659 60.824,30.252 C60.4506648,30.4013341 60.0400022,30.476 59.592,30.476 C59.0133304,30.476 58.5513351,30.3756677 58.206,30.175 C57.8606649,29.9743323 57.6040008,29.738668 57.436,29.468 L57.408,29.468 L57.408,30.364 L56.092,30.364 L56.092,19.78 L57.45,19.78 L57.45,23.588 Z M57.436,27.634 C57.436,27.830001 57.4849995,28.0283323 57.583,28.229 C57.6810005,28.4296677 57.8209991,28.6069992 58.003,28.761 C58.1850009,28.9150008 58.3973321,29.0409995 58.64,29.139 C58.8826679,29.2370005 59.1533318,29.286 59.452,29.286 C60.0306696,29.286 60.4809984,29.0853353 60.803,28.684 C61.1250016,28.2826647 61.286,27.7180036 61.286,26.99 L61.286,26.052 C61.286,25.3239964 61.1226683,24.7593353 60.796,24.358 C60.4693317,23.9566647 60.0213362,23.756 59.452,23.756 C59.1719986,23.756 58.9106679,23.8026662 58.668,23.896 C58.4253321,23.9893338 58.2130009,24.1199992 58.031,24.288 C57.8489991,24.4560008 57.7043339,24.6589988 57.597,24.897 C57.4896661,25.1350012 57.436,25.4033318 57.436,25.702 L57.436,27.634 Z M64.4873333,22.706 L65.8453333,22.706 L65.8453333,27.466 C65.8453333,28.1100032 65.9759987,28.5766652 66.2373333,28.866 C66.498668,29.1553348 66.9139971,29.3 67.4833333,29.3 C67.7166678,29.3 67.9453322,29.2603337 68.1693333,29.181 C68.3933344,29.1016663 68.5963324,28.9850008 68.7783333,28.831 C68.9603342,28.6769992 69.1073328,28.4833345 69.2193333,28.25 C69.3313339,28.0166655 69.3873333,27.7506682 69.3873333,27.452 L69.3873333,22.706 L70.7453333,22.706 L70.7453333,30.364 L69.4293333,30.364 L69.4293333,29.398 L69.4153333,29.398 C69.1819988,29.7526684 68.8786685,30.0256657 68.5053333,30.217 C68.1319981,30.4083343 67.679336,30.504 67.1473333,30.504 C66.7739981,30.504 66.4263349,30.4480006 66.1043333,30.336 C65.7823317,30.2239994 65.5023345,30.0560011 65.2643333,29.832 C65.0263321,29.6079989 64.837334,29.3256684 64.6973333,28.985 C64.5573326,28.6443316 64.4873333,28.240669 64.4873333,27.774 L64.4873333,22.706 Z M74.4926667,22.706 L74.4926667,30.364 L73.1346667,30.364 L73.1346667,22.706 L74.4926667,22.706 Z M74.5346667,19.962 L74.5346667,21.446 L73.0926667,21.446 L73.0926667,19.962 L74.5346667,19.962 Z M78.24,19.78 L78.24,30.364 L76.882,30.364 L76.882,19.78 L78.24,19.78 Z M85.4173333,29.412 C85.2026656,29.804002 84.897002,30.0793325 84.5003333,30.238 C84.1036647,30.3966675 83.6673357,30.476 83.1913333,30.476 C82.2206618,30.476 81.4810025,30.1936695 80.9723333,29.629 C80.4636641,29.0643305 80.2093333,28.2593386 80.2093333,27.214 L80.2093333,25.856 C80.2093333,25.3426641 80.2839992,24.8806687 80.4333333,24.47 C80.5826674,24.0593313 80.790332,23.7140014 81.0563333,23.434 C81.3223346,23.1539986 81.6419981,22.9393341 82.0153333,22.79 C82.3886685,22.6406659 82.7993311,22.566 83.2473333,22.566 C83.8353362,22.566 84.2996649,22.6663323 84.6403333,22.867 C84.9810017,23.0676677 85.2306658,23.2799989 85.3893333,23.504 L85.3893333,19.78 L86.7473333,19.78 L86.7473333,30.364 L85.4453333,30.364 L85.4453333,29.412 L85.4173333,29.412 Z M85.4033333,25.38 C85.4033333,25.183999 85.3543338,24.988001 85.2563333,24.792 C85.1583328,24.595999 85.0183342,24.4210008 84.8363333,24.267 C84.6543324,24.1129992 84.4396679,23.9893338 84.1923333,23.896 C83.9449987,23.8026662 83.6766681,23.756 83.3873333,23.756 C82.8086637,23.756 82.3583349,23.9566647 82.0363333,24.358 C81.7143317,24.7593353 81.5533333,25.3239964 81.5533333,26.052 L81.5533333,26.99 C81.5533333,27.7180036 81.716665,28.2826647 82.0433333,28.684 C82.3700016,29.0853353 82.8179971,29.286 83.3873333,29.286 C83.6673347,29.286 83.9286654,29.2416671 84.1713333,29.153 C84.4140012,29.0643329 84.6263324,28.9360008 84.8083333,28.768 C84.9903342,28.5999992 85.1349994,28.3970012 85.2423333,28.159 C85.3496672,27.9209988 85.4033333,27.6526682 85.4033333,27.354 L85.4033333,25.38 Z M91.9926666,23.728 C91.7126652,23.728 91.4536678,23.7769995 91.2156666,23.875 C90.9776654,23.9730005 90.7723342,24.1083325 90.5996666,24.281 C90.4269991,24.4536675 90.2916671,24.6636654 90.1936666,24.911 C90.0956661,25.1583346 90.0466666,25.4266652 90.0466666,25.716 L90.0466666,25.912 L93.8826666,25.912 L93.8826666,25.66 C93.8826666,25.0719971 93.7146683,24.6030017 93.3786666,24.253 C93.042665,23.9029982 92.5806696,23.728 91.9926666,23.728 Z M95.0166666,29.636 C94.680665,29.8693345 94.2793356,30.0676658 93.8126666,30.231 C93.3459976,30.3943341 92.7626701,30.476 92.0626666,30.476 C91.5866643,30.476 91.1456687,30.408334 90.7396666,30.273 C90.3336646,30.137666 89.9790015,29.9276681 89.6756666,29.643 C89.3723318,29.3583319 89.1343342,28.9920022 88.9616666,28.544 C88.7889991,28.0959978 88.7026666,27.5640031 88.7026666,26.948 L88.7026666,26.08 C88.7026666,25.5013304 88.7843325,24.9926689 88.9476666,24.554 C89.1110008,24.1153311 89.3396652,23.7490015 89.6336666,23.455 C89.9276681,23.1609985 90.2753313,22.9393341 90.6766666,22.79 C91.078002,22.6406659 91.5166643,22.566 91.9926666,22.566 C92.9726715,22.566 93.7519971,22.8646637 94.3306666,23.462 C94.9093362,24.0593363 95.1986666,24.9039945 95.1986666,25.996 L95.1986666,27.018 L90.0466666,27.018 L90.0466666,27.074 C90.0466666,27.8020036 90.2379981,28.3549981 90.6206666,28.733 C91.0033352,29.1110019 91.5026636,29.3 92.1186666,29.3 C92.6226692,29.3 93.0543315,29.2393339 93.4136666,29.118 C93.7730018,28.9966661 94.1159983,28.8286677 94.4426666,28.614 L95.0166666,29.636 Z M101.298,24.036 C101.167333,23.9799997 101.025001,23.9356668 100.871,23.903 C100.716999,23.8703332 100.546668,23.854 100.36,23.854 C100.107999,23.854 99.8676678,23.9029995 99.639,24.001 C99.4103321,24.0990005 99.2120008,24.2389991 99.044,24.421 C98.8759991,24.6030009 98.7406671,24.8199987 98.638,25.072 C98.5353328,25.3240013 98.484,25.5993318 98.484,25.898 L98.484,30.364 L97.126,30.364 L97.126,22.706 L98.442,22.706 L98.442,23.924 L98.456,23.924 C98.6800011,23.4946645 98.9716648,23.1610012 99.331,22.923 C99.6903351,22.6849988 100.149997,22.566 100.71,22.566 C101.046002,22.566 101.377332,22.6173328 101.704,22.72 L101.298,24.036 Z" id="resume-builder"></path>
                    <rect id="Rectangle-3-Copy" x="44" y="7" width="1" height="24"></rect>
                    <path d="M25.394,10.338 L25.394,2.837 L23.262,4.059 L22.456,2.707 L25.589,0.965 L27.058,0.965 L27.058,10.338 L25.394,10.338 Z M33.3196667,5.541 C33.5883347,5.26366528 33.8006659,5.02100104 33.9566667,4.813 C34.1126675,4.60499896 34.2296663,4.41866749 34.3076667,4.254 C34.3856671,4.08933251 34.4333333,3.93766736 34.4506667,3.799 C34.4680001,3.66033264 34.4766667,3.52600065 34.4766667,3.396 L34.4766667,3.292 C34.4766667,3.04066541 34.3748344,2.81316768 34.1711667,2.6095 C33.967499,2.40583231 33.6230025,2.304 33.1376667,2.304 C32.9643325,2.304 32.7931675,2.32133316 32.6241667,2.356 C32.4551659,2.39066684 32.2883342,2.45566619 32.1236667,2.551 C31.9589992,2.64633381 31.7965008,2.7806658 31.6361667,2.954 C31.4758326,3.1273342 31.3176675,3.34833199 31.1616667,3.617 L29.9136667,2.798 C30.0263339,2.59866567 30.1671659,2.38200117 30.3361667,2.148 C30.5051675,1.91399883 30.7174988,1.69950097 30.9731667,1.5045 C31.2288346,1.30949903 31.5321649,1.14700065 31.8831667,1.017 C32.2341685,0.88699935 32.6479977,0.822 33.1246667,0.822 C33.653336,0.822 34.1083315,0.88699935 34.4896667,1.017 C34.8710019,1.14700065 35.1851655,1.32249889 35.4321667,1.5435 C35.6791679,1.76450111 35.8611661,2.02016521 35.9781667,2.3105 C36.0951673,2.60083479 36.1536667,2.90633173 36.1536667,3.227 L36.1536667,3.357 C36.1536667,3.86833589 36.0388345,4.35583101 35.8091667,4.8195 C35.5794989,5.28316899 35.2436689,5.73599779 34.8016667,6.178 L32.0456667,8.96 L36.5046667,8.96 L36.5046667,10.338 L29.8746667,10.338 L29.8746667,9.09 L33.3196667,5.541 Z" id="12-copy"></path>
                </g>
            </g>
        </g>
    </g>
</svg>