<?xml version="1.0" encoding="UTF-8"?>
<svg width="24px" height="24px" viewBox="0 0 24 24" version="1.1" xmlns="http://www.w3.org/2000/svg" xmlns:xlink="http://www.w3.org/1999/xlink">
    <!-- Generator: Sketch 47.1 (45422) - http://www.bohemiancoding.com/sketch -->
    <title>thin 0002 write pencil new edit</title>
    <desc>Created with Sketch.</desc>
    <defs></defs>
    <g id="Main" stroke="none" stroke-width="1" fill="none" fill-rule="evenodd">
        <g id="Resume_step_1" transform="translate(-398.000000, -128.000000)">
            <g id="thin-0002-write-pencil-new-edit" transform="translate(398.000000, 128.000000)">
                <g id="Group" stroke="#0070FF" stroke-linecap="round" stroke-linejoin="round">
                    <path d="M2.9666,15.906 C2.8989,15.9737 0.6224,22.3963 0.6224,22.3963 C0.3922,22.9522 1.0119,23.6308 1.6113,23.3856 C1.6113,23.3856 8.0681,21.1432 8.1359,21.0754" id="Shape"></path>
                    <path d="M1.0843,21.1119 L2.9027,22.9303" id="Shape"></path>
                    <path d="M22.9616,4.0034 L20.0386,1.0804 C19.4183,0.4601 18.4126,0.4601 17.7923,1.0804 L2.9666,15.906 L8.1359,21.0753 L22.9616,6.2497 C23.5819,5.6294 23.5819,4.6237 22.9616,4.0034 Z" id="Shape"></path>
                    <path d="M6.0966,19.0359 L18.1969,6.9356" id="Shape"></path>
                </g>
                <rect id="Rectangle-path" x="0" y="0" width="24" height="24"></rect>
            </g>
        </g>
    </g>
</svg>